<?xml version="1.0" encoding="UTF-8"?>
<svg id="Capa_1" data-name="Capa 1" xmlns="http://www.w3.org/2000/svg" viewBox="0 0 756.83 816.53">
  <defs>
    <style type="text/css">
      @import url("https://fonts.googleapis.com/css2?family=Kodchasan|display=swap");

      .cls-1 {
        font-size: 20px;
        color: #ff0000;
      }

      .cls-1, .cls-2 {
        font-family: 'Kodchasan', sans-serif;
      }

      .cls-2 {
        font-size: 35px;
        color: #ff0000;
      }

      .first-word {
        animation:
      }
    </style>
  </defs>
  <text class="cls-1" transform="translate(90.95 15.4) rotate(94.71)"><tspan x="0" y="0">M</tspan></text>
  <text class="cls-1" transform="translate(87.86 54.36) rotate(93.74)"><tspan x="0" y="0">i</tspan></text>
  <text class="cls-1" transform="translate(87.21 64.29) rotate(93.31)"><tspan x="0" y="0"> </tspan></text>
  <text class="cls-1" transform="translate(86.55 74.91) rotate(92.56)"><tspan x="0" y="0">n</tspan></text>
  <text class="cls-1" transform="translate(85.48 98.6) rotate(91.45)"><tspan x="0" y="0">o</tspan></text>
  <text class="cls-1" transform="translate(84.79 123.31) rotate(89.99)"><tspan x="0" y="0">m</tspan></text>
  <text class="cls-1" transform="translate(84.82 156.1) rotate(88.25)"><tspan x="0" y="0">b</tspan></text>
  <text class="cls-1" transform="translate(85.69 182.6) rotate(86.76)"><tspan x="0" y="0">r</tspan></text>
  <text class="cls-1" transform="translate(86.47 197.89) rotate(85.27)"><tspan x="0" y="0">e</tspan></text>
  <text class="cls-1" transform="translate(88.65 223.02) rotate(83.63)"><tspan x="0" y="0"> </tspan></text>
  <text class="cls-1" transform="translate(89.79 234.27) rotate(81.72)"><tspan x="0" y="0">e</tspan></text>
  <text class="cls-1" transform="translate(93.54 259.64) rotate(78.72)"><tspan x="0" y="0">s</tspan></text>
  <text class="cls-1" transform="translate(97.86 280.66) rotate(76.13)"><tspan x="0" y="0"> </tspan></text>
  <text class="cls-1" transform="translate(100.4 292.42) rotate(71.89)"><tspan x="0" y="0">H</tspan></text>
  <text class="cls-1" transform="translate(110.69 323.18) rotate(63.49)"><tspan x="0" y="0">e</tspan></text>
  <text class="cls-1" transform="translate(123.42 347.3) rotate(55.22)"><tspan x="0" y="0">l</tspan></text>
  <text class="cls-1" transform="translate(131.06 359.14) rotate(42.96)"><tspan x="0" y="0">e</tspan></text>
  <text class="cls-1" transform="translate(156.08 380.29) rotate(17.58)"><tspan x="0" y="0">n</tspan></text>
  <text class="cls-1" transform="translate(185.93 387.8) rotate(-3.03)"><tspan x="0" y="0">a</tspan></text>
  <text class="cls-1" transform="translate(211.3 385.79) rotate(-10.99)"><tspan x="0" y="0">,</tspan></text>
  <text class="cls-1" transform="translate(222.46 383.81) rotate(-17.51)"><tspan x="0" y="0">s</tspan></text>
  <text class="cls-1" transform="translate(244.57 376.75) rotate(-25.77)"><tspan x="0" y="0">o</tspan></text>
  <text class="cls-1" transform="translate(269.3 364.57) rotate(-32.67)"><tspan x="0" y="0">y</tspan></text>
  <text class="cls-1" transform="translate(291.18 350.19) rotate(-36.48)"><tspan x="0" y="0"> </tspan></text>
  <text class="cls-1" transform="translate(300.71 343.37) rotate(-39.74)"><tspan x="0" y="0">d</tspan></text>
  <text class="cls-1" transform="translate(321.67 325.65) rotate(-42.34)"><tspan x="0" y="0">i</tspan></text>
  <text class="cls-1" transform="translate(329.5 318.61) rotate(-44.11)"><tspan x="0" y="0">s</tspan></text>
  <text class="cls-1" transform="translate(344.53 304.05) rotate(-46.07)"><tspan x="0" y="0">e</tspan></text>
  <text class="cls-1" transform="translate(361.58 286.29) rotate(-47.24)"><tspan x="0" y="0">ñ</tspan></text>
  <text class="cls-1" transform="translate(377.93 268.33) rotate(-46.13)"><tspan x="0" y="0">a</tspan></text>
  <text class="cls-1" transform="translate(393.23 252.18) rotate(-38.97)"><tspan x="0" y="0">d</tspan></text>
  <text class="cls-1" transform="translate(413.29 235.93) rotate(-31.41)"><tspan x="0" y="0">o</tspan></text>
  <text class="cls-1" transform="translate(434.5 223.19) rotate(-25.16)"><tspan x="0" y="0">r</tspan></text>
  <text class="cls-1" transform="translate(447.84 216.64) rotate(-19.74)"><tspan x="0" y="0">a</tspan></text>
  <text class="cls-1" transform="translate(469.05 209.29) rotate(-14.71)"><tspan x="0" y="0"> </tspan></text>
  <text class="cls-1" transform="translate(478.65 206.22) rotate(-8.65)"><tspan x="0" y="0">U</tspan></text>
  <text class="cls-1" transform="translate(506.8 201.9) rotate(.17)"><tspan x="0" y="0">X</tspan></text>
  <text class="cls-1" transform="translate(534.41 202.15) rotate(7.74)"><tspan x="0" y="0">/</tspan></text>
  <text class="cls-1" transform="translate(555.08 204.49) rotate(16.84)"><tspan x="0" y="0">U</tspan></text>
  <text class="cls-1" transform="translate(582.11 213.26) rotate(25.89)"><tspan x="0" y="0">I</tspan></text>
  <text class="cls-1" transform="translate(592.21 218.15) rotate(31.43)"><tspan x="0" y="0"> </tspan></text>
  <text class="cls-1" transform="translate(600.84 222.62) rotate(40.81)"><tspan x="0" y="0">y</tspan></text>
  <text class="cls-1" transform="translate(618.59 238.62) rotate(50.41)"><tspan x="0" y="0"> </tspan></text>
  <text class="cls-1" transform="translate(625.27 245.74) rotate(59.44)"><tspan x="0" y="0">v</tspan></text>
  <text class="cls-1" transform="translate(636.87 266.32) rotate(67.37)"><tspan x="0" y="0">i</tspan></text>
  <text class="cls-1" transform="translate(640.85 274.67) rotate(74.21)"><tspan x="0" y="0">v</tspan></text>
  <text class="cls-1" transform="translate(647.02 296.09) rotate(81.82)"><tspan x="0" y="0">o</tspan></text>
  <text class="cls-1" transform="translate(650.27 320.79) rotate(86.51)"><tspan x="0" y="0"> </tspan></text>
  <text class="cls-1" transform="translate(651.13 331.03) rotate(90.33)"><tspan x="0" y="0">e</tspan></text>
  <text class="cls-1" transform="translate(650.96 355.3) rotate(94.64)"><tspan x="0" y="0">n</tspan></text>
  <text class="cls-1" transform="translate(648.85 379.35) rotate(97.19)"><tspan x="0" y="0"> </tspan></text>
  <text class="cls-1" transform="translate(647.92 389.69) rotate(100.21)"><tspan x="0" y="0">M</tspan></text>
  <text class="cls-1" transform="translate(641.1 427.57) rotate(106.51)"><tspan x="0" y="0">a</tspan></text>
  <text class="cls-1" transform="translate(634.95 448.9) rotate(113.87)"><tspan x="0" y="0">d</tspan></text>
  <text class="cls-1" transform="translate(624.26 472.5) rotate(120.38)"><tspan x="0" y="0">r</tspan></text>
  <text class="cls-1" transform="translate(616.19 486.12) rotate(124.11)"><tspan x="0" y="0">i</tspan></text>
  <text class="cls-1" transform="translate(611.26 494.16) rotate(129.55)"><tspan x="0" y="0">d</tspan></text>
  <text class="cls-1" transform="translate(594.38 513.99) rotate(134.76)"><tspan x="0" y="0">.</tspan></text>
  <text class="cls-1" transform="translate(588.59 519.88) rotate(137.62)"><tspan x="0" y="0"> </tspan></text>
  <text class="cls-1" transform="translate(580.97 526.86) rotate(140.85)"><tspan x="0" y="0"> </tspan></text>
  <text class="cls-1" transform="translate(573.2 533.49) rotate(145.44)"><tspan x="0" y="0">¿</tspan></text>
  <text class="cls-1" transform="translate(555.09 546.17) rotate(151.01)"><tspan x="0" y="0">Q</tspan></text>
  <text class="cls-1" transform="translate(526.62 561.71) rotate(154.12)"><tspan x="0" y="0">u</tspan></text>
  <text class="cls-1" transform="translate(504.68 572.28) rotate(154.85)"><tspan x="0" y="0">i</tspan></text>
  <text class="cls-1" transform="translate(495.62 576.51) rotate(154.82)"><tspan x="0" y="0">e</tspan></text>
  <text class="cls-1" transform="translate(473.33 586.99) rotate(153.89)"><tspan x="0" y="0">r</tspan></text>
  <text class="cls-1" transform="translate(459.18 593.82) rotate(152.25)"><tspan x="0" y="0">e</tspan></text>
  <text class="cls-1" transform="translate(436.52 605.79) rotate(149.44)"><tspan x="0" y="0">s</tspan></text>
  <text class="cls-1" transform="translate(416.88 617.49) rotate(142.23)"><tspan x="0" y="0"> </tspan></text>
  <text class="cls-1" transform="translate(405.24 626.39) rotate(129.68)"><tspan x="0" y="0">s</tspan></text>
  <text class="cls-1" transform="translate(389.3 646.52) rotate(113.67)"><tspan x="0" y="0">a</tspan></text>
  <text class="cls-1" transform="translate(378.39 672.77) rotate(96.52)"><tspan x="0" y="0">b</tspan></text>
  <text class="cls-1" transform="translate(375.73 705.06) rotate(78.15)"><tspan x="0" y="0">e</tspan></text>
  <text class="cls-1" transform="translate(383.02 733.91) rotate(61.88)"><tspan x="0" y="0">r</tspan></text>
  <text class="cls-1" transform="translate(393.34 751.84) rotate(50.76)"><tspan x="0" y="0"> </tspan></text>
  <text class="cls-1" transform="translate(402.84 764.68) rotate(34.54)"><tspan x="0" y="0">m</tspan></text>
  <text class="cls-1" transform="translate(435.13 784.9) rotate(17.91)"><tspan x="0" y="0">á</tspan></text>
  <text class="cls-1" transform="translate(460.47 792.62) rotate(8.39)"><tspan x="0" y="0">s</tspan></text>
  <text class="cls-1" transform="translate(482.58 795.55) rotate(3.05)"><tspan x="0" y="0"> </tspan></text>
  <text class="cls-1" transform="translate(494.64 796.31) rotate(-1.39)"><tspan x="0" y="0">s</tspan></text>
  <text class="cls-1" transform="translate(516.23 795.54) rotate(-4.52)"><tspan x="0" y="0">o</tspan></text>
  <text class="cls-1" transform="translate(541.6 793.53) rotate(-4.28)"><tspan x="0" y="0">b</tspan></text>
  <text class="cls-1" transform="translate(568.18 791.55) rotate(-4.07)"><tspan x="0" y="0">r</tspan></text>
  <text class="cls-1" transform="translate(583.6 790.44) rotate(-3.86)"><tspan x="0" y="0">e</tspan></text>
  <text class="cls-1" transform="translate(608.29 788.79) rotate(-3.67)"><tspan x="0" y="0"> </tspan></text>
  <text class="cls-1" transform="translate(618.94 788.08) rotate(-3.4)"><tspan x="0" y="0">m</tspan></text>
  <text class="cls-1" transform="translate(651.84 786.15) rotate(-3.11)"><tspan x="0" y="0">í</tspan></text>
  <text class="cls-1" transform="translate(661.81 785.59) rotate(-2.87)"><tspan x="0" y="0">?</tspan></text>
  <text class="cls-2" transform="translate(24.48 13.86) rotate(90)"><tspan x="0" y="0">¡</tspan><tspan x="12.97" y="0">H</tspan><tspan x="48.83" y="0">o</tspan><tspan x="79.41" y="0">l</tspan><tspan x="91.66" y="0">a</tspan><tspan x="119.3" y="0">!</tspan></text>
</svg>